<svg id="visual" viewBox="0 0 1920 1080" width="1920" height="1080" xmlns="http://www.w3.org/2000/svg" xmlns:xlink="http://www.w3.org/1999/xlink" version="1.1"><rect x="0" y="0" width="1920" height="1080" fill="#001220"></rect><defs><linearGradient id="grad1_0" x1="43.8%" y1="100%" x2="100%" y2="0%"><stop offset="14.444444444444446%" stop-color="#001220" stop-opacity="1"></stop><stop offset="85.55555555555554%" stop-color="#001220" stop-opacity="1"></stop></linearGradient></defs><defs><linearGradient id="grad2_0" x1="0%" y1="100%" x2="56.3%" y2="0%"><stop offset="14.444444444444446%" stop-color="#001220" stop-opacity="1"></stop><stop offset="85.55555555555554%" stop-color="#001220" stop-opacity="1"></stop></linearGradient></defs><g transform="translate(1920, 1080)"><path d="M-540 0C-511.9 -41.7 -483.9 -83.5 -465.6 -124.8C-447.3 -166 -438.8 -206.9 -420.9 -243C-403 -279.1 -375.6 -310.6 -351.4 -351.4C-327.3 -392.2 -306.3 -442.4 -270 -467.7C-233.7 -492.9 -181.9 -493.4 -134.3 -501.3C-86.8 -509.2 -43.4 -524.6 0 -540L0 0Z" fill="#FBAE3C"></path></g><g transform="translate(0, 0)"><path d="M540 0C507.6 40.5 475.1 81 458.8 122.9C442.5 164.8 442.3 208.1 428.7 247.5C415.1 286.9 388.2 322.5 361.3 361.3C334.5 400.2 307.7 442.3 270 467.7C232.3 493 183.7 501.7 136.9 511C90.1 520.2 45 530.1 0 540L0 0Z" fill="#FBAE3C"></path></g></svg>