<svg id="visual" viewBox="0 0 1920 1080" width="1920" height="1080" xmlns="http://www.w3.org/2000/svg" xmlns:xlink="http://www.w3.org/1999/xlink" version="1.1"><rect x="0" y="0" width="1920" height="1080" fill="#FBAE3C"></rect><defs><linearGradient id="grad1_0" x1="43.8%" y1="0%" x2="100%" y2="100%"><stop offset="14.444444444444446%" stop-color="#fbae3c" stop-opacity="1"></stop><stop offset="85.55555555555554%" stop-color="#fbae3c" stop-opacity="1"></stop></linearGradient></defs><defs><linearGradient id="grad2_0" x1="0%" y1="0%" x2="56.3%" y2="100%"><stop offset="14.444444444444446%" stop-color="#fbae3c" stop-opacity="1"></stop><stop offset="85.55555555555554%" stop-color="#fbae3c" stop-opacity="1"></stop></linearGradient></defs><g transform="translate(1920, 0)"><path d="M0 483C-59 504.8 -117.9 526.6 -165 507.9C-212.1 489.1 -247.3 429.8 -281 386.7C-314.6 343.6 -346.6 316.6 -391.6 284.5C-436.5 252.4 -494.3 215.1 -513.6 166.9C-532.8 118.6 -513.4 59.3 -494 0L0 0Z" fill="#001424"></path></g><g transform="translate(0, 1080)"><path d="M0 -540C49.2 -504.4 98.4 -468.8 142.8 -439.4C187.1 -410 226.6 -386.8 256.3 -352.7C285.9 -318.7 305.8 -273.9 324.4 -235.7C343.1 -197.6 360.5 -166.1 393.7 -127.9C427 -89.8 476 -44.9 525 0L0 0Z" fill="#001424"></path></g></svg>