<svg id="visual" viewBox="0 0 1920 1080" width="1920" height="1080" xmlns="http://www.w3.org/2000/svg" xmlns:xlink="http://www.w3.org/1999/xlink" version="1.1"><rect x="0" y="0" width="1920" height="1080" fill="#001220"></rect><defs><linearGradient id="grad1_0" x1="43.8%" y1="100%" x2="100%" y2="0%"><stop offset="14.444444444444446%" stop-color="#001220" stop-opacity="1"></stop><stop offset="85.55555555555554%" stop-color="#001220" stop-opacity="1"></stop></linearGradient></defs><defs><linearGradient id="grad2_0" x1="0%" y1="100%" x2="56.3%" y2="0%"><stop offset="14.444444444444446%" stop-color="#001220" stop-opacity="1"></stop><stop offset="85.55555555555554%" stop-color="#001220" stop-opacity="1"></stop></linearGradient></defs><g transform="translate(1920, 1080)"><path d="M-486 0C-468.3 -45 -450.7 -90.1 -441.3 -143.4C-431.9 -196.7 -430.7 -258.3 -393.2 -285.7C-355.7 -313 -281.8 -306.2 -235.1 -323.6C-188.5 -341 -169.1 -382.6 -134.4 -413.7C-99.8 -444.8 -49.9 -465.4 0 -486L0 0Z" fill="#FBAE3C"></path></g><g transform="translate(0, 0)"><path d="M486 0C496.9 61.5 507.9 123 462.2 150.2C416.5 177.4 314.3 170.4 271.8 197.5C229.4 224.6 246.8 286 231 317.9C215.2 349.9 166.1 352.5 122.1 375.7C78 398.8 39 442.4 0 486L0 0Z" fill="#FBAE3C"></path></g></svg>