<svg id="visual" viewBox="0 0 1920 1080" width="1920" height="1080" xmlns="http://www.w3.org/2000/svg" xmlns:xlink="http://www.w3.org/1999/xlink" version="1.1"><rect x="0" y="0" width="1920" height="1080" fill="#FBAE3C"></rect><defs><linearGradient id="grad1_0" x1="43.8%" y1="100%" x2="100%" y2="0%"><stop offset="14.444444444444446%" stop-color="#fbae3c" stop-opacity="1"></stop><stop offset="85.55555555555554%" stop-color="#fbae3c" stop-opacity="1"></stop></linearGradient></defs><defs><linearGradient id="grad2_0" x1="0%" y1="100%" x2="56.3%" y2="0%"><stop offset="14.444444444444446%" stop-color="#fbae3c" stop-opacity="1"></stop><stop offset="85.55555555555554%" stop-color="#fbae3c" stop-opacity="1"></stop></linearGradient></defs><g transform="translate(1920, 1080)"><path d="M-432 0C-427.2 -86.8 -422.4 -173.6 -374.1 -216C-325.8 -258.4 -234.1 -256.3 -164.5 -284.9C-94.9 -313.5 -47.5 -372.8 0 -432L0 0Z" fill="#001220"></path></g><g transform="translate(0, 0)"><path d="M432 0C373.7 48 315.4 96 286.7 165.5C257.9 235 258.8 326.1 216 374.1C173.2 422.1 86.6 427.1 0 432L0 0Z" fill="#001220"></path></g></svg>